<?xml version="1.0" encoding="UTF-8"?>
<!DOCTYPE svg PUBLIC "-//W3C//DTD SVG 1.1//EN" "http://www.w3.org/Graphics/SVG/1.1/DTD/svg11.dtd">
<!-- Creator: CorelDRAW X7 -->
<svg xmlns="http://www.w3.org/2000/svg" xml:space="preserve" width="900mm" height="600mm" version="1.1" style="shape-rendering:geometricPrecision; text-rendering:geometricPrecision; image-rendering:optimizeQuality; fill-rule:evenodd; clip-rule:evenodd"
viewBox="0 0 90000 60000"
 xmlns:xlink="http://www.w3.org/1999/xlink">
 <defs>
  <style type="text/css">
   <![CDATA[
    .fil0 {fill:black}
   ]]>
  </style>
 </defs>
 <g id="Layer_x0020_1">
  <metadata id="CorelCorpID_0Corel-Layer"/>
  <path class="fil0" d="M38926 37025c697,-165 1365,-410 1981,-727 753,-387 1727,64 1727,798l1 3328c0,2071 -2031,3750 -4535,3750l-33253 0c-2505,0 -4535,-1679 -4535,-3750l0 -27500c0,-2072 2030,-3750 4535,-3750l12470 0c626,0 1133,419 1133,937l0 351c0,384 -282,732 -715,871 -1294,416 -2493,901 -3594,1452 -179,90 -384,138 -594,139l-8133 0c-313,0 -567,210 -567,468l0 26563c0,259 254,469 567,469l32119 0c313,0 567,-210 567,-469l0 -2029c0,-419 338,-786 826,-901l0 0z"/>
  <path class="fil0" d="M33971 27764l0 -7795c-7727,87 -14144,1661 -17956,4187 -2511,1663 -4919,5090 -3784,7685 -3730,-1759 -3365,-7597 -1198,-10217 3783,-4575 13755,-9159 22938,-9216l0 -7144 14903 11250 -14903 11250z"/>
 </g>
</svg>
